name rise30.3154peak39.0474fall46.5389.mot
datacolumns 19
datarows 21
range 1.61666300000000 1.65000000000000
endheader
time	ground_force1_vx	ground_force1_vy	ground_force1_vz	ground_force1_px	ground_force1_py	ground_force1_pz	ground_force2_vx	ground_force2_vy	ground_force2_vz	ground_force2_px	ground_force2_py	ground_force2_pz	ground_torque1_x	ground_torque1_y	ground_torque1_z	ground_torque2_x	ground_torque2_y	ground_torque2_z	
1.61666300000000	56.48671500000000	763.55271700000003	68.14086900000000	0.30641400000000	0.00000000000000	0.11272600000000	0.00000000000000	0.00000000000000	0.00000000000000	0.00000000000000	0.00000000000000	0.00000000000000	0.00000000000000	29.48155700000000	0.00000000000000	0.00000000000000	0.00000000000000	0.00000000000000	
1.61832600000000	55.79328900000000	765.31972199999996	68.13420400000000	0.30538200000000	0.00000000000000	0.11268600000000	0.00000000000000	0.00000000000000	0.00000000000000	0.00000000000000	0.00000000000000	0.00000000000000	0.00000000000000	29.48676900000000	0.00000000000000	0.00000000000000	0.00000000000000	0.00000000000000	
1.61999400000000	55.11027700000000	767.00781199999994	68.11870000000000	0.30440000000000	0.00000000000000	0.11264100000000	0.00000000000000	0.00000000000000	0.00000000000000	0.00000000000000	0.00000000000000	0.00000000000000	0.00000000000000	29.48910900000000	0.00000000000000	0.00000000000000	0.00000000000000	0.00000000000000	
1.62166200000000	54.43832300000000	768.61445600000002	68.09453300000000	0.30346600000000	0.00000000000000	0.11259200000000	0.00000000000000	0.00000000000000	0.00000000000000	0.00000000000000	0.00000000000000	0.00000000000000	0.00000000000000	29.48858900000000	0.00000000000000	0.00000000000000	0.00000000000000	0.00000000000000	
1.62333400000000	53.77796400000000	770.13713600000005	68.06183299999999	0.30258000000000	0.00000000000000	0.11253900000000	0.00000000000000	0.00000000000000	0.00000000000000	0.00000000000000	0.00000000000000	0.00000000000000	0.00000000000000	29.48519200000000	0.00000000000000	0.00000000000000	0.00000000000000	0.00000000000000	
1.62499800000000	53.12962900000000	771.57337199999995	68.02068300000001	0.30174100000000	0.00000000000000	0.11248200000000	0.00000000000000	0.00000000000000	0.00000000000000	0.00000000000000	0.00000000000000	0.00000000000000	0.00000000000000	29.47886500000000	0.00000000000000	0.00000000000000	0.00000000000000	0.00000000000000	
1.62666400000000	52.49364400000000	772.92074200000002	67.97112300000001	0.30094600000000	0.00000000000000	0.11242100000000	0.00000000000000	0.00000000000000	0.00000000000000	0.00000000000000	0.00000000000000	0.00000000000000	0.00000000000000	29.46953200000000	0.00000000000000	0.00000000000000	0.00000000000000	0.00000000000000	
1.62832900000000	51.87023300000000	774.17690300000004	67.91315400000001	0.30019500000000	0.00000000000000	0.11235600000000	0.00000000000000	0.00000000000000	0.00000000000000	0.00000000000000	0.00000000000000	0.00000000000000	0.00000000000000	29.45708900000000	0.00000000000000	0.00000000000000	0.00000000000000	0.00000000000000	
1.62999500000000	51.25952300000000	775.33960999999999	67.84674000000000	0.29948400000000	0.00000000000000	0.11228700000000	0.00000000000000	0.00000000000000	0.00000000000000	0.00000000000000	0.00000000000000	0.00000000000000	0.00000000000000	29.44140900000000	0.00000000000000	0.00000000000000	0.00000000000000	0.00000000000000	
1.63166200000000	50.66154700000000	776.40673800000002	67.77181600000000	0.29881200000000	0.00000000000000	0.11221400000000	0.00000000000000	0.00000000000000	0.00000000000000	0.00000000000000	0.00000000000000	0.00000000000000	0.00000000000000	29.42234500000000	0.00000000000000	0.00000000000000	0.00000000000000	0.00000000000000	
1.63333000000000	50.07625100000000	777.37629700000002	67.68828600000001	0.29817700000000	0.00000000000000	0.11213800000000	0.00000000000000	0.00000000000000	0.00000000000000	0.00000000000000	0.00000000000000	0.00000000000000	0.00000000000000	29.39973300000000	0.00000000000000	0.00000000000000	0.00000000000000	0.00000000000000	
1.63500100000000	49.50349700000000	778.24645199999998	67.59603199999999	0.29757600000000	0.00000000000000	0.11205900000000	0.00000000000000	0.00000000000000	0.00000000000000	0.00000000000000	0.00000000000000	0.00000000000000	0.00000000000000	29.37339200000000	0.00000000000000	0.00000000000000	0.00000000000000	0.00000000000000	
1.63666800000000	48.94306800000000	779.01553899999999	67.49491600000000	0.29700600000000	0.00000000000000	0.11197600000000	0.00000000000000	0.00000000000000	0.00000000000000	0.00000000000000	0.00000000000000	0.00000000000000	0.00000000000000	29.34313100000000	0.00000000000000	0.00000000000000	0.00000000000000	0.00000000000000	
1.63833300000000	48.39467100000000	779.68207800000005	67.38478400000000	0.29646500000000	0.00000000000000	0.11189000000000	0.00000000000000	0.00000000000000	0.00000000000000	0.00000000000000	0.00000000000000	0.00000000000000	0.00000000000000	29.30874900000000	0.00000000000000	0.00000000000000	0.00000000000000	0.00000000000000	
1.63999400000000	47.85795100000000	780.24478799999997	67.26546900000000	0.29594900000000	0.00000000000000	0.11180200000000	0.00000000000000	0.00000000000000	0.00000000000000	0.00000000000000	0.00000000000000	0.00000000000000	0.00000000000000	29.27003700000000	0.00000000000000	0.00000000000000	0.00000000000000	0.00000000000000	
1.64166800000000	47.33248500000000	780.70259899999996	67.13679999999999	0.29545600000000	0.00000000000000	0.11171100000000	0.00000000000000	0.00000000000000	0.00000000000000	0.00000000000000	0.00000000000000	0.00000000000000	0.00000000000000	29.22678500000000	0.00000000000000	0.00000000000000	0.00000000000000	0.00000000000000	
1.64333000000000	46.81779900000000	781.05466400000000	66.99860000000000	0.29498200000000	0.00000000000000	0.11161700000000	0.00000000000000	0.00000000000000	0.00000000000000	0.00000000000000	0.00000000000000	0.00000000000000	0.00000000000000	29.17877800000000	0.00000000000000	0.00000000000000	0.00000000000000	0.00000000000000	
1.64499900000000	46.31336700000000	781.30036500000006	66.85069300000001	0.29452500000000	0.00000000000000	0.11152100000000	0.00000000000000	0.00000000000000	0.00000000000000	0.00000000000000	0.00000000000000	0.00000000000000	0.00000000000000	29.12580600000000	0.00000000000000	0.00000000000000	0.00000000000000	0.00000000000000	
1.64666400000000	45.81862100000000	781.43932700000005	66.69290700000001	0.29408100000000	0.00000000000000	0.11142200000000	0.00000000000000	0.00000000000000	0.00000000000000	0.00000000000000	0.00000000000000	0.00000000000000	0.00000000000000	29.06766000000000	0.00000000000000	0.00000000000000	0.00000000000000	0.00000000000000	
1.64832900000000	45.33295500000000	781.47141899999997	66.52507900000001	0.29364600000000	0.00000000000000	0.11132200000000	0.00000000000000	0.00000000000000	0.00000000000000	0.00000000000000	0.00000000000000	0.00000000000000	0.00000000000000	29.00414000000000	0.00000000000000	0.00000000000000	0.00000000000000	0.00000000000000	
1.65000000000000	44.85573200000000	781.39676399999996	66.34705800000000	0.29321900000000	0.00000000000000	0.11122000000000	0.00000000000000	0.00000000000000	0.00000000000000	0.00000000000000	0.00000000000000	0.00000000000000	0.00000000000000	28.93505200000000	0.00000000000000	0.00000000000000	0.00000000000000	0.00000000000000	
